<svg width="115" height="119" viewBox="0 0 115 119" fill="none" xmlns="http://www.w3.org/2000/svg">
<g clip-path="url(#clip0_4_21)" filter="url(#filter0_d_4_21)">
<path d="M107.272 41.2578C108.608 48.9756 100.412 46.9199 100.412 46.9199C96.9822 37.2546 91.4941 38.1563 91.4941 38.1563C95.7907 41.2939 96.1157 43.9626 96.1157 43.9626C84.67 35.8481 69.1082 42.3758 63.1868 45.4413C59.865 40.7529 53.1493 30.2581 55.5323 25.4976C58.6735 19.2585 65.0643 22.8289 65.0643 22.8289C77.9904 22.6125 77.2682 17.9962 77.2682 17.9962C73.8381 20.665 63.7284 17.9962 63.7284 17.9962C72.5022 17.9962 76.2212 14.4259 76.2212 14.4259C69.6859 16.0488 62.3925 9.08833 62.3925 9.08833C59.7206 -4.58009 47.3723 1.22629 47.3723 1.22629C55.099 -0.108098 53.041 8.07853 53.041 8.07853C43.3645 11.5046 44.2672 16.9864 44.2672 16.9864C47.4084 12.6948 50.0803 12.3702 50.0803 12.3702C41.2343 24.8124 49.7553 42.1233 52.2828 46.6314C47.6612 49.8411 36.8293 56.9098 31.955 54.4574C25.7086 51.3198 29.2831 44.9364 29.2831 44.9364C29.1387 32.0253 24.5171 32.7466 24.5171 32.7466C27.1889 36.1727 24.5171 46.2708 24.5171 46.2708C24.5171 37.5071 20.9426 33.7925 20.9426 33.7925C22.5674 40.3201 15.5989 47.6051 15.5989 47.6051C1.91461 50.2739 7.7277 62.6079 7.7277 62.6079C6.39178 54.8901 14.5879 56.9458 14.5879 56.9458C18.018 66.6111 23.5061 65.7095 23.5061 65.7095C19.2095 62.5719 18.8845 59.9031 18.8845 59.9031C30.9801 68.4864 47.6973 60.6965 52.7521 57.9556C56.1461 62.8243 62.4647 72.8502 60.1178 77.5025C56.9766 83.7417 50.5858 80.1713 50.5858 80.1713C37.6597 80.3156 38.3819 84.9318 38.3819 84.9318C41.812 82.263 51.9217 84.9318 51.9217 84.9318C43.1479 84.9318 39.4289 88.5022 39.4289 88.5022C45.9642 86.8793 53.2576 93.8397 53.2576 93.8397C55.9295 107.508 68.2778 101.702 68.2778 101.702C60.5511 103.036 62.6091 94.8495 62.6091 94.8495C72.2856 91.4234 71.3829 85.9416 71.3829 85.9416C68.2417 90.2333 65.5698 90.5579 65.5698 90.5579C74.2353 78.4042 66.2558 61.5621 63.5479 56.6212C68.4583 53.1951 78.3875 47.0642 82.973 49.3723C89.2194 52.5099 85.6449 58.8933 85.6449 58.8933C85.7893 71.8044 90.4109 71.0831 90.4109 71.0831C87.739 67.657 90.4109 57.5589 90.4109 57.5589C90.4109 66.3226 93.9854 70.0372 93.9854 70.0372C92.3606 63.5095 99.3291 56.2245 99.3291 56.2245C113.086 53.5918 107.272 41.2578 107.272 41.2578Z" fill="url(#paint0_linear_4_21)"/>
</g>
<defs>
<filter id="filter0_d_4_21" x="0.5" y="0" width="114" height="119" filterUnits="userSpaceOnUse" color-interpolation-filters="sRGB">
<feFlood flood-opacity="0" result="BackgroundImageFix"/>
<feColorMatrix in="SourceAlpha" type="matrix" values="0 0 0 0 0 0 0 0 0 0 0 0 0 0 0 0 0 0 127 0" result="hardAlpha"/>
<feOffset dy="10"/>
<feGaussianBlur stdDeviation="3"/>
<feComposite in2="hardAlpha" operator="out"/>
<feColorMatrix type="matrix" values="0 0 0 0 0 0 0 0 0 0 0 0 0 0 0 0 0 0 0.25 0"/>
<feBlend mode="normal" in2="BackgroundImageFix" result="effect1_dropShadow_4_21"/>
<feBlend mode="normal" in="SourceGraphic" in2="effect1_dropShadow_4_21" result="shape"/>
</filter>
<linearGradient id="paint0_linear_4_21" x1="57.4966" y1="0.00115967" x2="57.4966" y2="102.927" gradientUnits="userSpaceOnUse">
<stop stop-color="#C0B7E8"/>
<stop offset="1" stop-color="#8176AF"/>
</linearGradient>
<clipPath id="clip0_4_21">
<rect width="102" height="103" fill="white" transform="translate(6.5)"/>
</clipPath>
</defs>
</svg>
