<svg width="59" height="59" viewBox="0 0 59 59" fill="none" xmlns="http://www.w3.org/2000/svg">
<path fill-rule="evenodd" clip-rule="evenodd" d="M29.1892 0.5C45.2994 0.5 58.3784 13.4942 58.3784 29.5C58.3784 45.5058 45.2994 58.5 29.1892 58.5C13.0808 58.5 0 45.5058 0 29.5C0 13.4942 13.0808 0.5 29.1892 0.5ZM37.41 47.426C36.779 47.296 36.1554 47.1329 35.5419 46.9373C31.4135 45.6054 26.9667 45.6054 22.8384 46.9373C22.2247 47.1327 21.6011 47.2958 20.9702 47.426C22.7594 50.903 25.6464 53.7016 29.1892 55.393C32.7328 53.7022 35.6206 50.9036 37.41 47.426ZM17.6741 45.5348C15.9325 40.3134 13.1357 35.5004 9.45511 31.3912V31.389C7.31798 34.6674 6.32196 38.5516 6.61974 42.4463C9.86526 44.6495 13.7484 45.7344 17.6741 45.5348ZM48.9251 31.389C45.2446 35.4995 42.4473 40.313 40.7043 45.5348C44.6306 45.7344 48.5145 44.6495 51.7608 42.4463C52.0585 38.5516 51.0624 34.6673 48.9251 31.389ZM9.45511 27.6088C13.1357 23.4996 15.9325 18.6867 17.6741 13.4652C13.7483 13.2646 9.86483 14.3496 6.61974 16.5537C6.32172 20.4477 7.31777 24.3313 9.45511 27.6088ZM40.7043 13.4652C42.4473 18.6864 45.2447 23.4992 48.9251 27.6088C51.0626 24.3314 52.0587 20.4477 51.7608 16.5537C48.5149 14.3496 44.6307 13.2646 40.7043 13.4652ZM20.9702 11.574C21.0246 11.5863 21.0808 11.5965 21.137 11.6092C26.4452 12.7423 31.935 12.7423 37.2432 11.6092C37.2998 11.5965 37.3538 11.5863 37.41 11.574C35.6213 8.09597 32.7333 5.29713 29.1892 3.60699C25.646 5.29779 22.7588 8.0965 20.9702 11.574Z" fill="#5E6BE0"/>
</svg>
